<?xml version="1.0" encoding="UTF-8" standalone="no"?><!DOCTYPE svg PUBLIC "-//W3C//DTD SVG 1.1//EN" "http://www.w3.org/Graphics/SVG/1.1/DTD/svg11.dtd"><svg width="100%" height="100%" viewBox="0 0 838 329" version="1.1" xmlns="http://www.w3.org/2000/svg" xmlns:xlink="http://www.w3.org/1999/xlink" xml:space="preserve" xmlns:serif="http://www.serif.com/" style="fill-rule:evenodd;clip-rule:evenodd;stroke-linejoin:round;stroke-miterlimit:2;"><rect id="Braves-Skills-white" serif:id="Braves Skills white" x="0" y="0" width="837.14" height="328.1" style="fill:none;"/><g><path d="M37.883,165.584l0,14.959l-26.311,0c-2.517,-0 -4.93,-1 -6.71,-2.779c-1.78,-1.78 -2.779,-4.193 -2.779,-6.71l-0,-168.79l27.993,0c2.517,-0 4.93,1 6.71,2.779c1.78,1.78 2.779,4.193 2.779,6.71l0,53.24c3.045,-3.359 6.489,-6.169 10.332,-8.429c8.169,-4.805 17.7,-7.208 28.592,-7.208c12.174,0 23.106,2.723 32.797,8.169c9.691,5.446 17.379,13.135 23.066,23.066c5.686,9.931 8.53,21.704 8.53,35.319c0,13.455 -2.843,25.148 -8.53,35.079c-5.686,9.931 -13.375,17.66 -23.066,23.186c-9.691,5.526 -20.623,8.289 -32.797,8.289c-11.373,0 -21.144,-2.403 -29.313,-7.208c-4.296,-2.527 -8.06,-5.751 -11.293,-9.673Zm34.118,-13.873c6.247,0 11.813,-1.442 16.699,-4.325c4.885,-2.883 8.81,-7.008 11.773,-12.374c2.963,-5.366 4.445,-11.733 4.445,-19.101c0,-7.528 -1.482,-13.936 -4.445,-19.221c-2.963,-5.286 -6.888,-9.37 -11.773,-12.254c-4.885,-2.883 -10.452,-4.325 -16.699,-4.325c-6.247,0 -11.853,1.442 -16.819,4.325c-4.966,2.883 -8.89,6.968 -11.773,12.254c-2.883,5.286 -4.325,11.693 -4.325,19.221c0,7.368 1.442,13.735 4.325,19.101c2.883,5.366 6.808,9.491 11.773,12.374c4.966,2.883 10.572,4.325 16.819,4.325Z"/><path d="M203.669,68.236c3.532,-4.834 8.017,-8.765 13.455,-11.792c8.489,-4.725 18.821,-7.088 30.995,-7.088l0,34.599c-1.602,-0.16 -3.043,-0.28 -4.325,-0.36c-1.281,-0.08 -2.643,-0.12 -4.085,-0.12c-10.251,0 -18.541,2.923 -24.868,8.77c-6.327,5.847 -9.491,14.937 -9.491,27.27l0,51.539c-0,2.517 -1,4.93 -2.779,6.71c-1.78,1.78 -4.193,2.779 -6.71,2.779l-27.993,0l0,-129.264l35.8,0l-0,16.957Z"/><path d="M283.087,124.505l-23.292,55.203l35.575,0l4.202,-9.988c0.641,-1.522 0.65,-3.236 0.026,-4.764l-16.511,-40.452Z"/><path d="M363.368,179.708l40.958,0l-50.516,-123.725c-0.955,-2.34 -3.233,-3.87 -5.76,-3.87l-36.761,0l52.079,127.595Z"/><path d="M605.905,133.213c0.294,0.656 0.605,1.296 0.934,1.92c3.043,5.766 7.408,10.091 13.095,12.975c5.686,2.883 12.454,4.325 20.303,4.325c6.888,0 12.894,-1.041 18.02,-3.123c2.803,-1.139 5.509,-2.588 8.12,-4.349c3.857,-2.581 9.02,-1.969 12.167,1.443c5.928,6.33 14.071,15.16 14.071,15.16c-5.927,6.728 -13.375,11.893 -22.345,15.497c-8.97,3.604 -19.302,5.406 -30.995,5.406c-14.736,0 -27.671,-2.883 -38.803,-8.65c-11.132,-5.766 -19.742,-13.655 -25.829,-23.666c-6.087,-10.011 -9.13,-21.424 -9.13,-34.238c0,-12.975 3.003,-24.467 9.01,-34.479c6.007,-10.011 14.216,-17.86 24.628,-23.546c10.412,-5.686 22.265,-8.53 35.56,-8.53c12.174,0 23.306,2.563 33.397,7.689c10.091,5.126 18.18,12.574 24.267,22.345c6.087,9.771 9.13,21.544 9.13,35.319l-95.6,18.503Zm-3.606,-21.25l63.013,-12.09c-0.665,-2.327 -1.575,-4.509 -2.73,-6.547c-2.723,-4.805 -6.447,-8.61 -11.172,-11.413c-4.725,-2.803 -10.292,-4.205 -16.699,-4.205c-6.407,0 -12.053,1.402 -16.939,4.205c-4.885,2.803 -8.69,6.888 -11.413,12.254c-2.51,4.946 -3.863,10.878 -4.059,17.796Z"/><path d="M770.222,182.465c-11.052,0 -21.664,-1.321 -31.836,-3.964c-10.171,-2.643 -18.22,-5.967 -24.147,-9.971c-0,-0 3.763,-8.104 7.158,-15.417c2.791,-6.01 9.841,-8.729 15.944,-6.148c3.232,1.395 6.71,2.602 10.415,3.666c8.089,2.323 16.058,3.484 23.907,3.484c8.65,0 14.777,-1.041 18.381,-3.123c3.604,-2.082 5.406,-4.966 5.406,-8.65c0,-3.043 -1.402,-5.326 -4.205,-6.848c-2.803,-1.522 -6.527,-2.683 -11.172,-3.484c-4.645,-0.801 -9.731,-1.602 -15.257,-2.403c-5.526,-0.801 -11.092,-1.882 -16.699,-3.244c-5.606,-1.362 -10.732,-3.404 -15.377,-6.127c-4.645,-2.723 -8.369,-6.407 -11.172,-11.052c-2.803,-4.645 -4.205,-10.652 -4.205,-18.02c0,-8.169 2.363,-15.377 7.088,-21.624c4.725,-6.247 11.573,-11.172 20.543,-14.777c8.97,-3.604 19.702,-5.406 32.196,-5.406c8.81,0 17.78,0.961 26.91,2.883c9.13,1.922 16.739,4.725 22.826,8.409c0,-0 -3.829,8.174 -7.248,15.472c-2.725,5.815 -9.465,8.555 -15.475,6.29c-2.853,-1.172 -5.739,-2.038 -8.633,-2.661c-6.327,-1.362 -12.454,-2.042 -18.381,-2.042c-8.329,0 -14.416,1.121 -18.26,3.364c-3.844,2.243 -5.766,5.126 -5.766,8.65c0,3.204 1.402,5.606 4.205,7.208c2.803,1.602 6.527,2.883 11.172,3.844c4.645,0.961 9.731,1.802 15.257,2.523c5.526,0.721 11.092,1.802 16.699,3.244c5.606,1.442 10.692,3.484 15.257,6.127c4.565,2.643 8.289,6.247 11.172,10.812c2.883,4.565 4.325,10.532 4.325,17.9c0,8.009 -2.403,15.097 -7.208,21.264c-4.805,6.167 -11.733,11.012 -20.783,14.536c-9.05,3.524 -20.062,5.286 -33.037,5.286Z"/><path d="M487.973,138.724c0,0 23.954,-56.693 33.251,-78.696c2.199,-5.204 7.299,-8.585 12.948,-8.585c10.559,0 26.319,0 26.319,0l-54.051,128.294l-38.393,0l-53.909,-128.294l35.396,0c1.787,0 3.396,1.083 4.069,2.738c6.016,14.797 34.371,84.544 34.371,84.544Z"/></g><path d="M493.19,316.392c-1.819,-0.016 -3.752,-0.191 -5.798,-0.524c-2.15,-0.35 -4.475,-0.6 -6.975,-0.75l-0.717,-0.032c-3.401,1.072 -7.212,1.607 -11.433,1.607c-5,0 -9.4,-0.775 -13.2,-2.325c-3.8,-1.55 -6.6,-3.275 -8.4,-5.175c-1.2,-1.2 -1.775,-2.35 -1.725,-3.45c0.05,-1.1 0.725,-2.35 2.025,-3.75c1.2,-1.2 2.3,-1.8 3.3,-1.8c1,0 2.2,0.5 3.6,1.5c1.6,1.1 3.6,2.15 6,3.15c2.4,1 5.05,1.5 7.95,1.5c5.3,0 9.275,-1.325 11.925,-3.975c2.65,-2.65 3.975,-6.325 3.975,-11.025c0,-2.5 -0.425,-5.05 -1.275,-7.65c-0.85,-2.6 -1.975,-5.25 -3.375,-7.95c-1.4,-2.7 -2.85,-5.425 -4.35,-8.175c-1.5,-2.75 -2.95,-5.5 -4.35,-8.25c-0.388,-0.762 -0.755,-1.525 -1.101,-2.287c-4.543,7.812 -8.776,14.724 -12.699,20.737c-6.1,9.35 -11.725,16.85 -16.875,22.5c-5.15,5.65 -10.125,9.75 -14.925,12.3c-4.8,2.55 -9.8,3.825 -15,3.825c-1.9,0 -3.15,-0.575 -3.75,-1.725c-0.6,-1.15 -0.725,-2.45 -0.375,-3.9c0.35,-1.45 1.125,-2.75 2.325,-3.9c1.2,-1.15 2.75,-1.725 4.65,-1.725c3.1,0 6.425,-1.125 9.975,-3.375c3.55,-2.25 7.525,-5.925 11.925,-11.025c4.4,-5.1 9.475,-11.875 15.225,-20.325c4.741,-6.967 10.11,-15.242 16.109,-24.826c-0.089,-0.857 -0.134,-1.707 -0.134,-2.549c0,-5.7 1.025,-9.925 3.075,-12.675c2.05,-2.75 4.825,-4.125 8.325,-4.125c2.3,0 4.05,0.675 5.25,2.025c1.2,1.35 1.8,2.925 1.8,4.725c0,1.8 -0.625,3.75 -1.875,5.85c-1.25,2.1 -2.975,4.5 -5.175,7.2c0,2.2 0.475,4.425 1.425,6.675c0.95,2.25 2.175,4.55 3.675,6.9c1.5,2.35 3.075,4.775 4.725,7.275c1.65,2.5 3.225,5.075 4.725,7.725c1.5,2.65 2.725,5.375 3.675,8.175c0.95,2.8 1.425,5.75 1.425,8.85c0,5.514 -1.299,10.19 -3.898,14.03c0.963,-0.219 1.827,-0.37 2.593,-0.453c0.371,-0.051 0.756,-0.076 1.155,-0.076l0.15,-0.001c2.063,-0.041 4.388,-0.916 6.975,-2.624c2.65,-1.75 5.75,-4.55 9.3,-8.4c3.55,-3.85 7.7,-8.875 12.45,-15.075c4.19,-5.469 8.944,-11.949 14.262,-19.441l28.563,-87.959c2.2,-6.6 4.6,-11.95 7.2,-16.05c2.6,-4.1 5.525,-7.1 8.775,-9c3.25,-1.9 6.825,-2.85 10.725,-2.85c3.5,0 6.45,0.775 8.85,2.325c2.4,1.55 4.275,3.725 5.625,6.525c1.35,2.8 2.025,6.15 2.025,10.05c0,3.6 -0.6,7.6 -1.8,12c-1.2,4.4 -2.9,9.05 -5.1,13.95c-2.2,4.9 -4.825,9.95 -7.875,15.15c-3.05,5.2 -6.475,10.425 -10.275,15.675c-3.8,5.25 -7.85,10.4 -12.15,15.45c-1.763,2.07 -3.563,4.098 -5.401,6.084c0.549,-0.343 1.099,-0.671 1.651,-0.984c4.5,-2.55 8.9,-3.825 13.2,-3.825c3.8,0 6.925,1.225 9.375,3.675c2.45,2.45 3.675,5.725 3.675,9.825c0,3.2 -0.675,6.2 -2.025,9c-1.35,2.8 -3.25,5.4 -5.7,7.8c-2.45,2.4 -5.275,4.575 -8.475,6.525c-3.2,1.95 -6.675,3.675 -10.425,5.175c-3.75,1.5 -7.625,2.8 -11.625,3.9c2.3,4.8 4.45,8.7 6.45,11.7c2,3 3.9,5.325 5.7,6.975c1.8,1.65 3.55,2.8 5.25,3.45c1.7,0.65 3.4,0.975 5.1,0.975l0.15,0c2.8,0 5.725,-0.851 8.775,-2.551c3.05,-1.7 6.3,-4.3 9.75,-7.8c3.45,-3.5 7.2,-8.025 11.25,-13.575c3.392,-4.649 7.083,-10.052 11.072,-16.209l7.753,-23.616c0.6,-2 1.375,-3.3 2.325,-3.9c0.95,-0.6 2.425,-0.9 4.425,-0.9c3.1,0 5.075,0.475 5.925,1.425c0.85,0.95 0.925,2.425 0.225,4.425l-16.2,49.65c-1.7,5 -2.225,8.425 -1.575,10.275c0.639,1.818 2.364,2.743 5.175,2.775l0.15,0c3.666,-0.037 7.916,-1.437 12.75,-4.2c4.9,-2.8 10.125,-6.65 15.675,-11.55c2.421,-2.137 4.856,-4.427 7.305,-6.868c0.614,-2.658 1.404,-5.468 2.37,-8.432l33.3,-102.45c3.2,-9.8 6.95,-16.9 11.25,-21.3c4.3,-4.4 9.45,-6.6 15.45,-6.6c3.5,0 6.45,0.85 8.85,2.55c2.4,1.7 4.275,4.1 5.625,7.2c1.35,3.1 2.025,6.8 2.025,11.1c0,5.1 -0.925,10.85 -2.775,17.25c-1.85,6.4 -4.425,13.2 -7.725,20.4c-3.3,7.2 -7.15,14.575 -11.55,22.125c-4.4,7.55 -9.2,15.05 -14.4,22.5c-5.2,7.45 -10.675,14.6 -16.425,21.45c-4.34,5.171 -8.709,10.042 -13.107,14.615c-1.126,4.191 -1.707,7.744 -1.743,10.66c-0.05,4 0.925,6.925 2.925,8.775c2,1.85 4.95,2.775 8.85,2.775l0.127,0.002l0.173,-0.002c3.7,0 8,-1.4 12.9,-4.2c4.9,-2.8 10.125,-6.65 15.675,-11.55c2.421,-2.137 4.856,-4.427 7.305,-6.868c0.614,-2.658 1.404,-5.468 2.37,-8.432l33.3,-102.45c3.2,-9.8 6.95,-16.9 11.25,-21.3c4.3,-4.4 9.45,-6.6 15.45,-6.6c3.5,0 6.45,0.85 8.85,2.55c2.4,1.7 4.275,4.1 5.625,7.2c1.35,3.1 2.025,6.8 2.025,11.1c0,5.1 -0.925,10.85 -2.775,17.25c-1.85,6.4 -4.425,13.2 -7.725,20.4c-3.3,7.2 -7.15,14.575 -11.55,22.125c-4.4,7.55 -9.2,15.05 -14.4,22.5c-5.2,7.45 -10.675,14.6 -16.425,21.45c-4.34,5.171 -8.709,10.042 -13.107,14.615c-1.126,4.191 -1.707,7.744 -1.743,10.66c-0.05,4 0.925,6.925 2.925,8.775c2,1.85 4.95,2.776 8.85,2.776l0.15,0.001c2.9,0 6.025,-1.126 9.375,-3.376c3.35,-2.25 7.175,-5.925 11.475,-11.025c4.3,-5.1 9.3,-11.875 15,-20.325c4.688,-6.95 9.985,-15.202 15.891,-24.757c-0.094,-0.881 -0.141,-1.754 -0.141,-2.618c0,-5.7 1.025,-9.925 3.075,-12.675c2.05,-2.75 4.825,-4.125 8.325,-4.125c2.3,0 4.05,0.675 5.25,2.025c1.2,1.35 1.8,2.925 1.8,4.725c0,1.8 -0.625,3.75 -1.875,5.85c-1.25,2.1 -2.975,4.5 -5.175,7.2c0,2.2 0.475,4.425 1.425,6.675c0.95,2.25 2.175,4.55 3.675,6.9c1.5,2.35 3.075,4.775 4.725,7.275c1.65,2.5 3.225,5.075 4.725,7.725c1.5,2.65 2.725,5.375 3.675,8.175c0.95,2.8 1.425,5.75 1.425,8.85c0,7.8 -2.6,13.925 -7.8,18.375c-5.2,4.45 -12.1,6.675 -20.7,6.675c-5,0 -9.4,-0.775 -13.2,-2.325c-3.8,-1.55 -6.6,-3.275 -8.4,-5.175c-1.2,-1.2 -1.775,-2.35 -1.725,-3.45c0.05,-1.1 0.725,-2.35 2.025,-3.75c1.2,-1.2 2.3,-1.8 3.3,-1.8c1,0 2.2,0.5 3.6,1.5c1.6,1.1 3.6,2.15 6,3.15c2.4,1 5.05,1.5 7.95,1.5c5.3,0 9.275,-1.325 11.925,-3.975c2.65,-2.65 3.975,-6.325 3.975,-11.025c0,-2.5 -0.425,-5.05 -1.275,-7.65c-0.85,-2.6 -1.975,-5.25 -3.375,-7.95c-1.4,-2.7 -2.85,-5.425 -4.35,-8.175c-1.5,-2.75 -2.95,-5.5 -4.35,-8.25c-0.387,-0.759 -0.752,-1.519 -1.097,-2.278c-4.53,7.808 -8.739,14.717 -12.628,20.728c-6.05,9.35 -11.625,16.85 -16.725,22.5c-5.1,5.65 -9.975,9.75 -14.625,12.3c-4.65,2.55 -9.425,3.823 -14.325,3.823l-0.3,0.002c-6.5,0 -11.55,-1.625 -15.15,-4.875c-3.6,-3.25 -5.6,-8 -6,-14.25l-0.029,-0.523c-2.382,2.07 -4.748,4.02 -7.096,5.848c-5.65,4.4 -11.075,7.8 -16.275,10.2c-5.2,2.4 -10,3.6 -14.4,3.6l-0.15,-0c-6.5,0 -11.55,-1.624 -15.15,-4.874c-3.6,-3.25 -5.6,-8 -6,-14.25l-0.029,-0.523c-2.382,2.07 -4.748,4.02 -7.096,5.848c-5.65,4.4 -11.075,7.8 -16.275,10.2c-4.743,2.189 -9.153,3.382 -13.23,3.574c-0.237,0.014 -0.477,0.021 -0.72,0.024l-0.45,0.001l-0.338,-0.006c-3.631,-0.087 -6.544,-0.785 -8.737,-2.092c-2.35,-1.4 -3.975,-3.3 -4.875,-5.7c-0.9,-2.4 -1.275,-5.1 -1.125,-8.1c0.115,-2.298 0.509,-4.655 1.181,-7.07c-3.368,4.508 -6.637,8.289 -9.806,11.345c-4.2,4.05 -8.35,7 -12.45,8.85c-4.1,1.85 -8.3,2.774 -12.6,2.774l-0.15,-0.001c-2.6,0 -5.175,-0.524 -7.725,-1.574c-2.55,-1.05 -5.15,-2.8 -7.8,-5.25c-2.65,-2.45 -5.375,-5.875 -8.175,-10.275c-2.787,-4.379 -5.672,-9.947 -8.657,-16.703l-9.643,29.603c-0.4,1.3 -1.1,2.275 -2.1,2.925c-1,0.65 -2.65,0.975 -4.95,0.975c-1.6,0 -3.1,-0.35 -4.5,-1.05c-1.4,-0.7 -1.8,-2 -1.2,-3.9l8.553,-26.338c-0.979,1.334 -1.93,2.614 -2.853,3.838c-5.2,6.9 -9.825,12.375 -13.875,16.425c-4.05,4.05 -7.775,6.95 -11.175,8.7c-3.33,1.714 -6.709,2.589 -10.135,2.624l-0.215,0.001l-0.127,-0.001Zm55.719,-44.545l-0.804,2.467c4.585,-0.789 8.922,-1.888 13.012,-3.297c4.5,-1.55 8.475,-3.325 11.925,-5.325c3.45,-2 6.15,-4.125 8.1,-6.375c1.95,-2.25 2.925,-4.525 2.925,-6.825c0,-1.4 -0.4,-2.5 -1.2,-3.3c-0.8,-0.8 -2,-1.2 -3.6,-1.2c-2.6,0 -5.65,1.125 -9.15,3.375c-3.5,2.25 -7.225,5.35 -11.175,9.3c-3.292,3.292 -6.637,7.019 -10.033,11.179Zm183.058,-107.254c0,-1.8 -0.2,-3.325 -0.6,-4.575c-0.4,-1.25 -1,-2.2 -1.8,-2.85c-0.8,-0.65 -1.85,-0.975 -3.15,-0.975c-1.4,0 -2.75,0.525 -4.05,1.575c-1.3,1.05 -2.6,2.85 -3.9,5.4c-1.3,2.55 -2.75,6.125 -4.35,10.725l-27.605,85.147c1.964,-2.52 3.916,-5.103 5.855,-7.747c5.5,-7.5 10.625,-15.175 15.375,-23.025c4.75,-7.85 8.95,-15.6 12.6,-23.25c3.65,-7.65 6.5,-14.95 8.55,-21.9c2.05,-6.95 3.075,-13.125 3.075,-18.525Zm-172.414,74.576c2.446,-2.97 4.892,-6.104 7.339,-9.401c3.45,-4.65 6.725,-9.475 9.825,-14.475c3.1,-5 6,-9.95 8.7,-14.85c2.7,-4.9 5.025,-9.65 6.975,-14.25c1.95,-4.6 3.475,-8.85 4.575,-12.75c1.1,-3.9 1.65,-7.25 1.65,-10.05c0,-1.5 -0.2,-2.8 -0.6,-3.9c-0.4,-1.1 -1.025,-1.925 -1.875,-2.475c-0.85,-0.55 -1.875,-0.825 -3.075,-0.825c-1.5,0 -2.875,0.525 -4.125,1.575c-1.25,1.05 -2.525,2.875 -3.825,5.475c-1.3,2.6 -2.75,6.2 -4.35,10.8l-21.214,65.126Zm231.514,-74.576c0,-1.8 -0.2,-3.325 -0.6,-4.575c-0.4,-1.25 -1,-2.2 -1.8,-2.85c-0.8,-0.65 -1.85,-0.975 -3.15,-0.975c-1.4,0 -2.75,0.525 -4.05,1.575c-1.3,1.05 -2.6,2.85 -3.9,5.4c-1.3,2.55 -2.75,6.125 -4.35,10.725l-27.605,85.147c1.964,-2.52 3.916,-5.103 5.855,-7.747c5.5,-7.5 10.625,-15.175 15.375,-23.025c4.75,-7.85 8.95,-15.6 12.6,-23.25c3.65,-7.65 6.5,-14.95 8.55,-21.9c2.05,-6.95 3.075,-13.125 3.075,-18.525Zm-145.2,48.9c-2,0 -3.725,-0.65 -5.175,-1.95c-1.45,-1.3 -2.175,-3.2 -2.175,-5.7c0,-2.7 0.9,-5.25 2.7,-7.65c1.8,-2.4 4.55,-3.6 8.25,-3.6c2,0 3.725,0.625 5.175,1.875c1.45,1.25 2.175,3.175 2.175,5.775c0,2.7 -0.875,5.25 -2.625,7.65c-1.75,2.4 -4.525,3.6 -8.325,3.6Z" style="fill:#01b7af;"/></svg>